<?xml version="1.0" standalone="no"?>
<!DOCTYPE svg PUBLIC "-//W3C//DTD SVG 20010904//EN"
 "http://www.w3.org/TR/2001/REC-SVG-20010904/DTD/svg10.dtd">
<svg version="1.0" xmlns="http://www.w3.org/2000/svg"
 width="400.000000pt" height="227.000000pt" viewBox="0 0 400.000000 227.000000"
 preserveAspectRatio="xMidYMid meet">
<metadata>
Created by potrace 1.16, written by Peter Selinger 2001-2019
</metadata>
<g transform="translate(0.000000,227.000000) scale(0.100000,-0.100000)"
fill="#000000" stroke="none">
<path d="M3252 2251 c-12 -10 -22 -25 -22 -32 0 -8 -9 -21 -20 -29 -11 -8 -20
-22 -20 -32 0 -10 -4 -18 -10 -18 -5 0 -10 -9 -10 -20 0 -11 -4 -20 -10 -20
-5 0 -10 -9 -10 -20 0 -11 -4 -20 -10 -20 -5 0 -10 -8 -10 -18 0 -10 -9 -24
-20 -32 -11 -8 -20 -22 -20 -32 0 -10 -4 -18 -10 -18 -5 0 -10 -8 -10 -18 0
-10 -9 -24 -20 -32 -11 -8 -20 -21 -20 -30 0 -9 -9 -22 -20 -30 -11 -8 -20
-21 -20 -30 0 -9 -9 -22 -20 -30 -11 -8 -20 -21 -20 -28 0 -8 -13 -27 -30 -42
-16 -15 -30 -33 -30 -40 0 -7 -13 -25 -30 -40 -16 -15 -30 -33 -30 -40 0 -6
-18 -29 -40 -50 -22 -21 -40 -44 -40 -50 0 -6 -22 -33 -50 -60 -27 -27 -50
-54 -50 -60 0 -14 -66 -80 -80 -80 -5 0 -33 23 -61 50 -28 28 -57 50 -65 50
-8 0 -14 5 -14 10 0 6 -9 10 -20 10 -11 0 -20 5 -20 10 0 6 -9 10 -20 10 -16
0 -20 7 -20 30 0 17 5 30 10 30 6 0 10 43 10 110 0 67 -4 110 -10 110 -5 0
-10 7 -10 15 0 26 -107 125 -135 125 -14 0 -25 5 -25 10 0 6 -30 10 -70 10
-40 0 -70 -4 -70 -10 0 -5 -11 -10 -25 -10 -27 0 -135 -98 -135 -123 0 -7 -9
-19 -20 -27 -11 -8 -20 -21 -20 -30 0 -9 -9 -22 -20 -30 -11 -8 -20 -21 -20
-30 0 -9 -9 -22 -20 -30 -11 -8 -20 -21 -20 -30 0 -9 -9 -22 -20 -30 -11 -8
-20 -21 -20 -30 0 -9 -9 -22 -20 -30 -11 -8 -20 -21 -20 -30 0 -9 -9 -22 -20
-30 -11 -8 -20 -21 -20 -30 0 -9 -9 -22 -20 -30 -11 -8 -20 -21 -20 -30 0 -9
-9 -22 -20 -30 -11 -8 -20 -21 -20 -30 0 -9 -9 -22 -20 -30 -11 -8 -20 -20
-20 -28 0 -18 -66 -82 -85 -82 -8 0 -15 -4 -15 -10 0 -5 -4 -10 -10 -10 -6 0
-10 27 -10 60 0 33 4 60 10 60 6 0 10 40 10 100 0 60 -4 100 -10 100 -6 0 -10
33 -10 80 0 47 -4 80 -10 80 -5 0 -10 18 -10 40 0 22 -4 40 -10 40 -5 0 -10
14 -10 30 0 17 -4 30 -10 30 -5 0 -10 9 -10 20 0 11 -4 20 -10 20 -5 0 -10 9
-10 20 0 13 -7 20 -20 20 -11 0 -20 5 -20 10 0 6 -9 10 -20 10 -11 0 -20 5
-20 10 0 6 -18 10 -40 10 -22 0 -40 -4 -40 -10 0 -5 -11 -10 -25 -10 -19 0
-53 -27 -130 -105 -58 -58 -105 -110 -105 -116 0 -6 -18 -28 -40 -49 -22 -21
-40 -44 -40 -50 0 -7 -13 -25 -30 -40 -16 -15 -30 -33 -30 -40 0 -7 -13 -25
-30 -40 -16 -15 -30 -34 -30 -42 0 -7 -9 -20 -20 -28 -11 -8 -20 -21 -20 -28
0 -8 -13 -27 -30 -42 -16 -15 -30 -34 -30 -42 0 -7 -9 -20 -20 -28 -11 -8 -20
-21 -20 -30 0 -9 -9 -22 -20 -30 -11 -8 -20 -22 -20 -32 0 -10 -4 -18 -10 -18
-5 0 -10 -8 -10 -18 0 -10 -9 -24 -20 -32 -11 -8 -20 -22 -20 -32 0 -21 -30
-24 -48 -6 -7 7 -12 20 -12 30 0 10 -4 18 -10 18 -5 0 -10 9 -10 20 0 11 -4
20 -10 20 -5 0 -10 9 -10 20 0 11 -4 20 -10 20 -5 0 -10 9 -10 20 0 11 -4 20
-10 20 -5 0 -10 14 -10 30 0 17 -4 30 -10 30 -5 0 -10 16 -10 35 0 19 -6 45
-12 56 -11 17 -11 23 0 26 6 3 12 16 12 30 0 39 46 73 98 73 34 0 42 3 42 18
0 10 -5 23 -12 30 -15 15 -134 16 -143 2 -3 -5 -14 -10 -23 -10 -10 0 -28 -18
-42 -40 -14 -22 -28 -40 -32 -40 -5 0 -8 -22 -8 -50 0 -27 -4 -50 -10 -50 -6
0 -10 -27 -10 -60 0 -33 4 -60 10 -60 6 0 10 -26 10 -59 0 -33 5 -63 10 -66 6
-3 10 -19 10 -35 0 -16 5 -32 10 -35 6 -3 10 -19 10 -36 0 -16 5 -29 10 -29 6
0 10 -9 10 -20 0 -11 5 -20 10 -20 6 0 10 -9 10 -20 0 -11 5 -20 10 -20 6 0
10 -7 10 -16 0 -9 10 -26 23 -37 15 -13 18 -21 10 -24 -7 -3 -13 -13 -13 -24
0 -10 -4 -19 -10 -19 -5 0 -10 -8 -10 -18 0 -10 -9 -24 -20 -32 -11 -8 -20
-22 -20 -32 0 -10 -4 -18 -10 -18 -5 0 -10 -8 -10 -18 0 -10 -9 -24 -20 -32
-11 -8 -20 -22 -20 -32 0 -10 -4 -18 -10 -18 -5 0 -10 -9 -10 -20 0 -11 -4
-20 -10 -20 -5 0 -10 -8 -10 -18 0 -10 -9 -24 -20 -32 -11 -8 -20 -22 -20 -32
0 -10 -4 -18 -10 -18 -5 0 -10 -9 -10 -20 0 -11 -4 -20 -10 -20 -5 0 -10 -8
-10 -18 0 -10 -9 -24 -20 -32 -11 -8 -20 -22 -20 -31 0 -10 -4 -19 -10 -21
-15 -5 -25 -98 -11 -98 15 0 81 66 81 80 0 6 36 46 80 90 44 44 80 84 80 90 0
6 27 38 60 70 33 32 60 64 60 70 0 18 88 100 108 100 10 0 28 -9 40 -20 12
-11 33 -20 47 -20 14 0 25 -4 25 -10 0 -5 14 -10 30 -10 17 0 30 -4 30 -10 0
-5 24 -10 54 -10 30 0 58 -4 61 -10 3 -5 42 -10 86 -10 l79 0 0 -90 c0 -53 4
-90 10 -90 6 0 10 -16 10 -35 0 -30 9 -45 55 -90 l55 -55 95 0 c57 0 95 4 95
10 0 6 7 10 16 10 9 0 29 14 44 30 15 17 33 30 39 30 7 0 52 40 101 90 49 49
92 90 95 90 3 0 5 -22 5 -50 0 -27 5 -50 10 -50 6 0 10 -9 10 -20 0 -11 5 -20
10 -20 6 0 10 -7 10 -15 0 -9 11 -27 25 -40 13 -14 31 -25 40 -25 8 0 15 -4
15 -10 0 -5 9 -10 20 -10 11 0 20 -4 20 -10 0 -6 33 -10 80 -10 47 0 80 4 80
10 0 6 14 10 30 10 17 0 30 5 30 10 0 6 14 10 30 10 17 0 30 5 30 10 0 6 9 10
20 10 11 0 20 5 20 10 0 6 9 10 20 10 11 0 20 5 20 10 0 6 9 10 20 10 11 0 20
5 20 10 0 6 9 10 20 10 11 0 20 5 20 10 0 6 8 10 18 10 10 0 24 9 32 20 8 11
22 20 32 20 10 0 18 5 18 10 0 6 8 10 18 10 10 0 24 9 32 20 8 11 22 20 32 20
10 0 18 5 18 10 0 6 5 10 10 10 6 0 10 -9 10 -20 0 -11 5 -20 10 -20 6 0 10
-15 10 -34 0 -19 5 -38 10 -41 6 -3 10 -19 10 -36 0 -16 4 -29 8 -29 5 0 20
-21 33 -47 13 -27 36 -61 51 -78 16 -16 28 -33 28 -37 0 -4 12 -19 26 -33 19
-19 34 -25 59 -23 19 1 31 6 29 10 -3 4 2 8 10 8 9 0 16 4 16 8 0 5 12 15 28
23 35 18 252 238 252 255 0 10 13 14 40 14 22 0 40 -4 40 -10 0 -5 14 -10 30
-10 17 0 30 -4 30 -10 0 -6 27 -10 60 -10 33 0 60 -4 60 -10 0 -6 120 -10 340
-10 333 0 340 0 340 20 0 13 -7 20 -20 20 -11 0 -20 5 -20 10 0 6 -30 10 -70
10 -40 0 -70 4 -70 10 0 6 -27 10 -60 10 -33 0 -60 4 -60 10 0 6 -22 10 -50
10 -27 0 -50 5 -50 10 0 6 -18 10 -40 10 -22 0 -40 5 -40 10 0 6 -18 10 -40
10 -22 0 -40 5 -40 10 0 6 -18 10 -40 10 -22 0 -40 5 -40 10 0 6 -9 10 -20 10
-11 0 -20 5 -20 10 0 6 -13 10 -30 10 -16 0 -30 5 -30 10 0 6 -10 10 -22 11
l-23 0 23 16 c13 9 37 29 54 45 17 16 43 36 59 45 16 10 29 21 29 25 0 4 8 8
18 8 9 0 23 9 30 20 7 11 21 20 32 20 11 0 20 5 20 10 0 6 9 10 20 10 11 0 20
5 20 10 0 6 9 10 20 10 11 0 20 5 20 10 0 6 9 10 20 10 11 0 20 5 20 10 0 6
14 10 30 10 17 0 30 5 30 10 0 6 14 10 30 10 17 0 30 5 30 10 0 6 14 10 30 10
17 0 30 5 30 10 0 6 13 10 29 10 17 0 33 5 36 10 3 6 21 10 40 10 19 0 37 4
40 10 3 5 24 10 45 10 21 0 42 5 45 10 3 6 26 10 51 10 34 0 44 4 44 16 0 38
-28 43 -232 44 -126 0 -198 -4 -198 -10 0 -6 -30 -10 -70 -10 -40 0 -70 -4
-70 -10 0 -5 -15 -10 -34 -10 -19 0 -38 -4 -41 -10 -3 -5 -19 -10 -36 -10 -16
0 -29 -4 -29 -10 0 -5 -13 -10 -30 -10 -16 0 -30 -4 -30 -10 0 -5 -6 -10 -14
-10 -16 0 -140 -62 -144 -72 -2 -5 -12 -8 -23 -8 -10 0 -19 -4 -19 -10 0 -5
-4 -10 -10 -10 -5 0 -10 23 -10 50 0 28 5 50 10 50 6 0 10 18 10 40 0 22 5 40
10 40 6 0 10 14 10 30 0 17 5 30 10 30 6 0 10 14 10 30 0 17 5 30 10 30 6 0
10 14 10 30 0 17 5 30 10 30 6 0 10 9 10 20 0 11 5 20 10 20 6 0 10 14 10 30
0 17 5 30 10 30 6 0 10 9 10 20 0 11 5 20 10 20 6 0 10 8 10 18 0 10 9 24 20
32 11 8 20 21 20 30 0 9 9 22 20 30 11 8 20 21 20 30 0 9 9 22 20 30 11 8 20
22 20 32 0 10 5 18 10 18 6 0 10 8 10 18 0 10 9 24 20 32 11 8 20 22 20 32 0
10 5 18 10 18 6 0 10 8 10 18 0 10 9 24 20 32 11 8 20 22 20 32 0 10 5 18 10
18 6 0 10 9 10 20 0 11 5 20 10 20 6 0 10 9 10 20 0 11 5 20 10 20 6 0 10 9
10 20 0 11 5 20 10 20 6 0 10 9 10 20 0 11 5 20 10 20 6 0 10 9 10 20 0 11 5
20 10 20 6 0 10 9 10 20 0 11 5 20 10 20 6 0 10 9 10 20 0 11 5 20 10 20 6 0
10 9 10 20 0 11 5 20 10 20 6 0 10 14 10 30 0 17 5 30 10 30 6 0 10 30 10 70
0 40 -4 70 -10 70 -5 0 -10 7 -10 16 0 9 -14 29 -31 45 -31 29 -32 29 -159 29
-110 0 -130 -3 -148 -19z m-2202 -991 c0 -11 -4 -20 -10 -20 -6 0 -10 -27 -10
-60 0 -33 -4 -60 -10 -60 -6 0 -10 -27 -10 -60 0 -33 -4 -60 -10 -60 -5 0 -10
-22 -10 -50 0 -27 -4 -50 -9 -50 -6 0 -11 -17 -13 -37 -3 -38 -3 -38 -50 -41
-27 -2 -48 -7 -48 -13 0 -5 -44 -9 -100 -9 -60 0 -100 4 -100 10 0 6 -9 10
-20 10 -11 0 -20 3 -20 6 0 3 23 27 50 54 28 27 50 54 50 60 0 6 41 51 90 100
50 49 90 94 90 100 0 11 120 138 133 139 4 1 7 -8 7 -19z m1700 -570 c0 -27 5
-50 10 -50 6 0 10 -18 10 -39 0 -22 6 -42 13 -44 7 -4 3 -8 -10 -12 -12 -4
-28 -20 -35 -35 -7 -16 -20 -31 -30 -33 -16 -5 -18 4 -18 104 0 100 2 112 23
134 12 13 25 24 30 24 4 1 7 -21 7 -49z"/>
</g>
</svg>
